<svg width="270" height="280" viewBox="0 0 270 280" fill="none" xmlns="http://www.w3.org/2000/svg">
<path d="M43.123 157.365C43.1238 154.123 41.8659 151.005 39.6122 148.665C37.3584 146.325 34.2835 144.943 31.0304 144.809V144.675H37.5774C37.3354 142.978 36.4866 141.425 35.187 140.302C33.8874 139.179 32.2244 138.56 30.5035 138.56C28.7826 138.56 27.1196 139.179 25.82 140.302C24.5204 141.425 23.6716 142.978 23.4296 144.675H29.9841V144.809C27.3027 144.917 24.7259 145.874 22.6281 147.541C20.5303 149.208 19.0209 151.497 18.3192 154.077C17.6175 156.656 17.76 159.392 18.7261 161.885C19.6921 164.378 21.4314 166.5 23.6912 167.941L22.0245 172.861C21.9881 172.969 21.9734 173.082 21.9811 173.195C21.9889 173.309 22.019 173.419 22.0696 173.521C22.1203 173.622 22.1906 173.713 22.2764 173.787C22.3623 173.862 22.4621 173.919 22.5701 173.955C22.6593 173.984 22.7527 174 22.8466 174C23.0216 173.997 23.1918 173.942 23.3355 173.843C23.4793 173.744 23.5901 173.604 23.6538 173.442L25.2158 168.812C26.835 169.556 28.5942 169.949 30.3772 169.966C32.1603 169.982 33.9265 169.622 35.5595 168.909L37.0543 173.442C37.0829 173.558 37.1354 173.667 37.2086 173.761C37.2817 173.856 37.3738 173.935 37.479 173.992C37.5842 174.05 37.7003 174.085 37.8199 174.096C37.9395 174.106 38.06 174.092 38.1737 174.053C38.2874 174.015 38.3919 173.954 38.4806 173.873C38.5693 173.793 38.6402 173.695 38.6888 173.585C38.7374 173.476 38.7627 173.358 38.7631 173.238C38.7635 173.119 38.7389 173 38.691 172.891L37.1066 168.068C38.9443 166.945 40.4622 165.371 41.5154 163.497C42.5687 161.624 43.1222 159.512 43.123 157.365ZM30.5072 167.368C28.5209 167.367 26.5796 166.779 24.9287 165.679C23.2779 164.579 21.9916 163.016 21.2324 161.188C20.4733 159.36 20.2755 157.349 20.6639 155.409C21.0523 153.469 22.0096 151.687 23.4147 150.289C24.8197 148.891 26.6095 147.939 28.5578 147.553C30.5061 147.168 32.5254 147.367 34.3604 148.124C36.1954 148.881 37.7637 150.163 38.8671 151.808C39.9705 153.453 40.5595 155.387 40.5595 157.365C40.5555 160.018 39.4949 162.561 37.6104 164.437C35.7259 166.312 33.1713 167.366 30.5072 167.368Z" fill="#263238"/>
<path d="M30.5073 156.204H30.4624L27.1142 150.927C27.0764 150.858 27.025 150.798 26.963 150.75C26.901 150.702 26.8298 150.667 26.7537 150.647C26.6777 150.627 26.5984 150.624 26.5207 150.636C26.443 150.648 26.3687 150.675 26.3022 150.717C26.2357 150.759 26.1786 150.814 26.1342 150.878C26.0898 150.943 26.0592 151.016 26.0443 151.093C26.0293 151.17 26.0303 151.249 26.0472 151.325C26.0641 151.402 26.0966 151.474 26.1426 151.537L29.4833 156.814C29.3935 156.982 29.3448 157.168 29.3413 157.358C29.3422 157.562 29.3973 157.762 29.501 157.939C29.6046 158.115 29.7533 158.261 29.9318 158.362V162.761C29.948 162.903 30.0159 163.033 30.1228 163.128C30.2296 163.223 30.3678 163.276 30.511 163.276C30.6542 163.276 30.7924 163.223 30.8992 163.128C31.006 163.033 31.074 162.903 31.0902 162.761V158.362C31.3121 158.234 31.4855 158.037 31.5834 157.801C31.6814 157.565 31.6985 157.304 31.6321 157.057C31.5657 156.81 31.4196 156.592 31.2162 156.437C31.0129 156.281 30.7637 156.197 30.5073 156.196V156.204Z" fill="#263238"/>
<path d="M36.1547 180.576C49.3308 177.605 57.5933 164.559 54.6095 151.437C51.6256 138.315 38.5253 130.087 25.3491 133.058C12.173 136.03 3.91049 149.076 6.89437 162.198C9.87824 175.319 22.9785 183.548 36.1547 180.576Z" stroke="#FA26A0" stroke-width="2" stroke-linecap="round" stroke-linejoin="round"/>
<path d="M243.719 151.857V144.355C243.668 143.867 243.426 143.418 243.046 143.106C242.665 142.794 242.177 142.644 241.686 142.688H228.824C228.333 142.644 227.844 142.794 227.464 143.106C227.084 143.418 226.842 143.867 226.791 144.355V151.857C226.806 152.185 226.917 152.501 227.111 152.765C227.305 153.03 227.573 153.232 227.882 153.346C227.572 153.458 227.303 153.659 227.109 153.924C226.914 154.19 226.804 154.506 226.791 154.834V159.062C226.817 159.438 226.967 159.795 227.217 160.079C227.466 160.363 227.802 160.557 228.173 160.632C227.381 161.559 226.898 162.709 226.791 163.922V173.836C226.844 174.323 227.086 174.769 227.466 175.08C227.847 175.39 228.334 175.54 228.824 175.496H241.686C242.176 175.54 242.663 175.39 243.043 175.08C243.423 174.769 243.666 174.323 243.719 173.836V163.87C243.612 162.657 243.129 161.507 242.336 160.58C242.707 160.505 243.043 160.31 243.293 160.027C243.543 159.743 243.692 159.386 243.719 159.01V154.782C243.706 154.454 243.595 154.138 243.401 153.872C243.207 153.607 242.937 153.406 242.628 153.294C242.929 153.183 243.191 152.989 243.385 152.735C243.578 152.48 243.694 152.176 243.719 151.857Z" fill="#263238"/>
<path d="M233.981 138.2H236.522C236.671 138.2 236.818 138.229 236.956 138.286C237.094 138.343 237.219 138.426 237.325 138.531C237.43 138.636 237.514 138.761 237.571 138.898C237.628 139.035 237.658 139.182 237.658 139.331V141.757H232.844V139.331C232.844 139.182 232.874 139.035 232.931 138.898C232.988 138.761 233.072 138.636 233.177 138.531C233.283 138.426 233.408 138.343 233.546 138.286C233.684 138.229 233.831 138.2 233.981 138.2Z" fill="#263238"/>
<path d="M237.127 140.715H233.39V144.273H237.127V140.715Z" fill="#263238"/>
<path d="M227.77 152.549C227.798 152.83 227.902 153.098 228.07 153.325C228.238 153.551 228.465 153.728 228.726 153.837C228.451 153.949 228.214 154.138 228.043 154.381C227.872 154.624 227.775 154.91 227.762 155.207V159.166C227.775 159.512 227.901 159.845 228.121 160.114C228.341 160.382 228.643 160.572 228.981 160.655C228.274 161.537 227.85 162.611 227.762 163.736V173.01C227.797 173.453 228.005 173.865 228.342 174.156C228.679 174.447 229.118 174.594 229.564 174.565H240.946C241.391 174.594 241.83 174.447 242.167 174.156C242.504 173.865 242.713 173.453 242.747 173.01V163.714C242.66 162.588 242.235 161.515 241.529 160.632C241.867 160.55 242.169 160.36 242.389 160.091C242.609 159.823 242.734 159.49 242.747 159.144V155.207C242.735 154.91 242.638 154.624 242.467 154.381C242.296 154.138 242.059 153.949 241.783 153.837C242.044 153.728 242.271 153.551 242.44 153.325C242.608 153.098 242.712 152.83 242.74 152.549C242.74 152.549 242.74 152.49 242.74 152.46V148.27C240.958 148.931 239.104 149.38 237.217 149.609C233.689 149.974 232.695 148.754 229.586 148.754C228.948 148.761 228.32 148.919 227.755 149.215V152.46C227.755 152.46 227.755 152.52 227.755 152.549H227.77Z" fill="white"/>
<path d="M239.078 159.776C239.101 160.31 239.015 160.843 238.826 161.344C238.637 161.844 238.348 162.301 237.977 162.687C237.606 163.073 237.16 163.38 236.667 163.59C236.173 163.799 235.642 163.908 235.105 163.908C234.569 163.908 234.038 163.799 233.544 163.59C233.05 163.38 232.605 163.073 232.234 162.687C231.862 162.301 231.574 161.844 231.384 161.344C231.195 160.843 231.11 160.31 231.133 159.776C231.133 157.588 235.102 153.078 235.102 153.078C235.102 153.078 239.078 157.588 239.078 159.776Z" fill="#263238"/>
<path d="M252.553 174.048C262.106 164.535 262.106 149.111 252.553 139.597C243 130.084 227.512 130.084 217.959 139.597C208.406 149.111 208.406 164.535 217.959 174.048C227.512 183.562 243 183.562 252.553 174.048Z" stroke="#FA26A0" stroke-width="2" stroke-linecap="round" stroke-linejoin="round"/>
<path d="M47.966 112.001C53.2906 112.001 57.6071 107.076 57.6071 101C57.6071 94.9247 53.2906 89.9996 47.966 89.9996C42.6413 89.9996 38.3248 94.9247 38.3248 101C38.3248 107.076 42.6413 112.001 47.966 112.001Z" fill="#263238"/>
<path d="M47.9659 112.35C42.4503 112.35 37.9735 107.26 37.9735 101C37.9735 94.7406 42.4578 89.6497 47.9659 89.6497C53.4741 89.6497 57.9584 94.7406 57.9584 101C57.9584 107.26 53.4741 112.35 47.9659 112.35ZM47.9659 90.3494C42.8389 90.3494 38.6686 95.1277 38.6686 101C38.6686 106.873 42.8389 111.666 47.9659 111.666C53.0929 111.666 57.2857 106.873 57.2857 101C57.2857 95.1277 53.0855 90.3494 47.9659 90.3494Z" fill="white"/>
<path d="M44.812 112.001C50.1367 112.001 54.4532 107.076 54.4532 101C54.4532 94.9247 50.1367 89.9996 44.812 89.9996C39.4874 89.9996 35.1709 94.9247 35.1709 101C35.1709 107.076 39.4874 112.001 44.812 112.001Z" fill="#263238"/>
<path d="M44.812 112.35C39.2964 112.35 34.8121 107.26 34.8121 101C34.8121 94.7406 39.2964 89.6497 44.812 89.6497C50.3277 89.6497 54.8044 94.7406 54.8044 101C54.8044 107.26 50.3202 112.35 44.812 112.35ZM44.812 90.3494C39.685 90.3494 35.5147 95.1277 35.5147 101C35.5147 106.873 39.685 111.666 44.812 111.666C49.939 111.666 54.1019 106.887 54.1019 101.015C54.1019 95.1426 49.9316 90.3494 44.812 90.3494Z" fill="white"/>
<path d="M45.8584 102.221H26.0455V99.0798H45.8584C46.0658 99.0788 46.2713 99.1188 46.463 99.1974C46.6548 99.2759 46.8291 99.3916 46.9757 99.5376C47.1223 99.6836 47.2384 99.8571 47.3173 100.048C47.3962 100.239 47.4364 100.444 47.4354 100.65C47.4354 100.857 47.3946 101.061 47.3153 101.251C47.2361 101.442 47.1199 101.615 46.9735 101.761C46.827 101.907 46.6532 102.022 46.4619 102.101C46.2705 102.18 46.0655 102.221 45.8584 102.221Z" fill="#263238"/>
<path d="M45.8584 102.571H25.6792V98.73H45.8584C46.3698 98.73 46.8602 98.9323 47.2218 99.2925C47.5834 99.6526 47.7866 100.141 47.7866 100.65C47.7866 101.16 47.5834 101.648 47.2218 102.008C46.8602 102.368 46.3698 102.571 45.8584 102.571ZM26.4266 101.871H45.8584C46.1834 101.871 46.4952 101.742 46.7251 101.513C46.9549 101.284 47.0841 100.974 47.0841 100.65C47.0841 100.327 46.9549 100.016 46.7251 99.7872C46.4952 99.5582 46.1834 99.4296 45.8584 99.4296H26.4266V101.871Z" fill="white"/>
<path d="M30.7838 112.001C36.1085 112.001 40.4249 107.076 40.4249 101C40.4249 94.9247 36.1085 89.9996 30.7838 89.9996C25.4591 89.9996 21.1426 94.9247 21.1426 101C21.1426 107.076 25.4591 112.001 30.7838 112.001Z" fill="#263238"/>
<path d="M30.7838 112.35C25.2681 112.35 20.7838 107.26 20.7838 101C20.7838 94.7406 25.2681 89.6497 30.7838 89.6497C36.2994 89.6497 40.7762 94.7406 40.7762 101C40.7762 107.26 36.2919 112.35 30.7838 112.35ZM30.7838 90.3494C25.6567 90.3494 21.4864 95.1277 21.4864 101C21.4864 106.873 25.6567 111.666 30.7838 111.666C35.9108 111.666 40.0961 106.873 40.0961 101C40.0961 95.1277 35.9033 90.3494 30.7838 90.3494Z" fill="white"/>
<path d="M27.6224 112.001C32.947 112.001 37.2635 107.076 37.2635 101C37.2635 94.9247 32.947 89.9996 27.6224 89.9996C22.2977 89.9996 17.9812 94.9247 17.9812 101C17.9812 107.076 22.2977 112.001 27.6224 112.001Z" fill="#263238"/>
<path d="M27.6224 112.35C22.1142 112.35 17.6299 107.26 17.6299 101C17.6299 94.7406 22.1142 89.6497 27.6224 89.6497C33.1305 89.6497 37.6223 94.7406 37.6223 101C37.6223 107.26 33.138 112.35 27.6224 112.35ZM27.6224 90.3494C22.5028 90.3494 18.3325 95.1277 18.3325 101C18.3325 106.873 22.5028 111.666 27.6224 111.666C32.7419 111.666 36.9197 106.887 36.9197 101.015C36.9197 95.1426 32.7494 90.3494 27.6224 90.3494Z" fill="white"/>
<path d="M31.1276 101C31.1276 103.233 29.5506 105.012 27.6074 105.012C25.6642 105.012 24.0873 103.218 24.0873 101C24.0873 98.7821 25.6642 96.9809 27.6074 96.9809C29.5506 96.9809 31.1276 98.7821 31.1276 101Z" fill="#263238"/>
<path d="M27.6223 105.362C25.4923 105.362 23.7509 103.404 23.7509 101C23.7509 98.5961 25.4923 96.6311 27.6223 96.6311C29.7524 96.6311 31.4938 98.5886 31.4938 101C31.4938 103.412 29.7598 105.362 27.6223 105.362ZM27.6223 97.3308C25.8735 97.3308 24.4535 98.9756 24.4535 101C24.4535 103.025 25.8735 104.662 27.6223 104.662C29.3712 104.662 30.7912 103.017 30.7912 101C30.7912 98.9831 29.3712 97.3308 27.6223 97.3308Z" fill="white"/>
<path d="M29.745 101C29.745 103.233 28.168 105.012 26.2248 105.012C24.2816 105.012 22.7047 103.218 22.7047 101C22.7047 98.7821 24.2741 96.9809 26.2248 96.9809C28.1755 96.9809 29.745 98.7821 29.745 101Z" fill="#263238"/>
<path d="M26.2248 105.362C24.0873 105.362 22.3534 103.404 22.3534 101C22.3534 98.5961 24.0873 96.6311 26.2248 96.6311C28.3623 96.6311 30.0962 98.5886 30.0962 101C30.0962 103.412 28.3548 105.362 26.2248 105.362ZM26.2248 97.3308C24.4759 97.3308 23.0485 98.9756 23.0485 101C23.0485 103.025 24.4759 104.662 26.2248 104.662C27.9737 104.662 29.3937 103.017 29.3937 101C29.3937 98.9831 27.9662 97.3308 26.2248 97.3308Z" fill="white"/>
<path d="M60.735 110.106C66.1069 97.761 60.4128 83.417 48.0169 78.0673C35.6211 72.7177 21.2175 78.3882 15.8456 90.7328C10.4737 103.077 16.1678 117.421 28.5637 122.771C40.9595 128.121 55.3631 122.45 60.735 110.106Z" stroke="#FA26A0" stroke-width="2" stroke-linecap="round" stroke-linejoin="round"/>
<path d="M246.91 89.2627C246.91 89.2627 249.728 85.9134 247.538 85.05C245.348 84.1866 243.383 90.9075 243.383 90.9075C243.383 90.9075 243.823 87.3275 242.351 85.6975C240.879 84.0675 240.445 87.6178 240.954 90.528C241.167 91.8176 241.52 93.0803 242.007 94.2941C241.398 93.6521 240.735 93.0621 240.027 92.5301C235.288 88.9128 230.55 96.9958 230.55 96.9958C230.55 96.9958 218.988 106.672 217.06 113.37C215.132 120.069 235.408 109.224 240.976 104.989C244.989 101.945 245.176 98.7002 243.218 95.7677C245.199 95.9389 249.302 96.1548 250.46 95.2318C252.007 93.9963 247.777 93.3711 247.777 93.3711C247.777 93.3711 254.279 91.3913 255.109 88.4588C255.938 85.5264 246.91 89.2627 246.91 89.2627Z" fill="#263238"/>
<path d="M224.033 108.45C223.977 108.467 223.918 108.47 223.861 108.459C223.804 108.449 223.75 108.426 223.704 108.391C223.291 108.095 222.811 107.906 222.306 107.84C222.258 107.837 222.21 107.825 222.166 107.803C222.122 107.782 222.083 107.752 222.051 107.715C222.019 107.678 221.995 107.636 221.979 107.589C221.964 107.543 221.959 107.494 221.963 107.446C221.965 107.397 221.978 107.349 222 107.306C222.021 107.262 222.051 107.223 222.088 107.191C222.125 107.159 222.168 107.135 222.215 107.12C222.261 107.105 222.31 107.099 222.359 107.103C223.004 107.175 223.62 107.414 224.145 107.795C224.223 107.853 224.276 107.94 224.291 108.036C224.307 108.132 224.284 108.23 224.227 108.309C224.181 108.377 224.112 108.427 224.033 108.45Z" fill="white"/>
<path d="M236.096 105.964C236.001 105.993 235.898 105.983 235.81 105.937C235.722 105.891 235.656 105.813 235.625 105.719C235.18 104.123 234.361 102.656 233.233 101.439C233.18 101.367 233.155 101.278 233.163 101.188C233.17 101.099 233.21 101.016 233.275 100.953C233.339 100.891 233.424 100.854 233.514 100.848C233.604 100.843 233.693 100.871 233.764 100.926C234.98 102.221 235.864 103.788 236.342 105.496C236.371 105.59 236.361 105.692 236.315 105.78C236.269 105.867 236.19 105.934 236.096 105.964Z" fill="white"/>
<path d="M232.06 100.308C232.012 100.328 231.962 100.338 231.91 100.338C231.859 100.338 231.808 100.328 231.761 100.308C231.204 99.9599 230.585 99.7224 229.937 99.6083C229.839 99.5953 229.749 99.5444 229.688 99.4665C229.626 99.3887 229.598 99.29 229.608 99.1915C229.62 99.0939 229.669 99.0048 229.746 98.9434C229.823 98.8821 229.921 98.8535 230.019 98.864C230.773 98.9919 231.494 99.265 232.142 99.6678C232.202 99.7053 232.251 99.7592 232.281 99.8232C232.312 99.8871 232.324 99.9585 232.315 100.029C232.307 100.099 232.278 100.166 232.233 100.22C232.187 100.275 232.127 100.316 232.06 100.338V100.308Z" fill="white"/>
<path d="M240.797 103.761C240.74 103.773 240.681 103.773 240.625 103.761C240.527 103.743 240.441 103.688 240.384 103.607C240.326 103.527 240.303 103.427 240.318 103.33C240.479 102.503 240.389 101.647 240.059 100.871C239.729 100.095 239.174 99.4355 238.465 98.9756C238.379 98.9253 238.316 98.8429 238.291 98.7466C238.266 98.6503 238.28 98.5479 238.33 98.4621C238.381 98.3762 238.464 98.3138 238.56 98.2887C238.657 98.2636 238.76 98.2778 238.846 98.3281C239.683 98.8702 240.342 99.6452 240.74 100.557C241.139 101.469 241.26 102.477 241.088 103.456C241.078 103.531 241.045 103.601 240.992 103.656C240.94 103.711 240.871 103.748 240.797 103.761Z" fill="white"/>
<path d="M230.266 108.89C230.171 108.918 230.068 108.908 229.981 108.862C229.893 108.816 229.826 108.738 229.795 108.644C229.59 108.141 229.286 107.685 228.901 107.301C228.516 106.918 228.058 106.615 227.553 106.411C227.462 106.373 227.39 106.301 227.35 106.211C227.311 106.121 227.309 106.019 227.344 105.927C227.36 105.881 227.386 105.839 227.419 105.803C227.453 105.768 227.493 105.739 227.537 105.719C227.582 105.699 227.63 105.688 227.679 105.686C227.728 105.685 227.777 105.694 227.822 105.711C228.44 105.956 229.001 106.324 229.469 106.794C229.937 107.264 230.302 107.826 230.543 108.443C230.563 108.539 230.546 108.638 230.494 108.721C230.443 108.805 230.361 108.865 230.266 108.89Z" fill="white"/>
<path d="M241.372 124.124C254.53 121.074 262.715 107.98 259.653 94.8758C256.591 81.772 243.442 73.6212 230.284 76.6706C217.125 79.7199 208.941 92.8147 212.003 105.918C215.065 119.022 228.214 127.173 241.372 124.124Z" stroke="#FA26A0" stroke-width="2" stroke-linecap="round" stroke-linejoin="round"/>
<path d="M84.6173 53.2466C85.069 53.1193 85.4575 52.8304 85.7085 52.4354C86.5829 51.0584 86.1794 48.4683 85.6637 46.6299C84.5607 45.1054 83.129 43.8462 81.4737 42.9447C79.8183 42.0431 77.9812 41.5221 76.0972 41.4199C80.6114 43.3551 83.9447 47.858 84.6173 53.2466Z" fill="#263238"/>
<path d="M71.7026 57.4072C75.6498 57.991 79.6743 57.786 83.5411 56.8043C83.5975 56.2877 83.6274 55.7685 83.6308 55.2488C83.6308 54.9957 83.6308 54.7476 83.6308 54.5045H83.5934C80.8057 54.5045 78.2721 52.7629 75.5965 50.9319C74.3147 50.02 72.9877 49.1729 71.6204 48.3939C69.6365 47.2854 67.3929 46.7204 65.1183 46.7565C63.6019 48.8754 62.7844 51.4113 62.779 54.0133C63.6459 54.8841 66.0824 56.6629 71.7026 57.4072Z" fill="#263238"/>
<path d="M87.3228 49.7485C87.4315 50.8858 87.1945 52.0293 86.6427 53.0308C86.4264 53.3701 86.1445 53.6632 85.8135 53.8932C85.4825 54.1232 85.109 54.2854 84.7145 54.3705C84.7145 54.6608 84.7145 54.9511 84.7145 55.2488C84.7145 55.5465 84.7145 56.0452 84.6697 56.4396C85.8679 56.0373 87.0009 55.4631 88.0328 54.7352C88.0328 54.4971 88.0328 54.2663 88.0328 54.0356C88.0478 52.5764 87.8076 51.1257 87.3228 49.7485Z" fill="#263238"/>
<path d="M84.1913 59.521C85.0217 59.417 85.8621 59.6124 86.5604 60.0718C87.2192 58.8561 87.6737 57.5411 87.9057 56.1791C86.8558 56.8013 85.7373 57.3008 84.5724 57.6677C84.4843 58.2928 84.357 58.9117 84.1913 59.521Z" fill="#263238"/>
<path d="M82.4125 61.1882C81.7473 61.5082 81.0149 61.9325 80.2227 62.3939C78.2122 63.5625 75.9402 64.8873 73.3991 65.2892C72.8203 65.3768 72.2357 65.4216 71.6503 65.4232C70.979 65.4218 70.309 65.3645 69.6473 65.252C72.4285 66.6819 75.6462 67.0244 78.6681 66.2121C80.2944 64.8529 81.5771 63.132 82.4125 61.1882Z" fill="#263238"/>
<path d="M84.0195 60.6374L83.8102 60.6821C83.2201 62.3399 82.3423 63.8816 81.2168 65.2371C83.134 64.2562 84.7677 62.8035 85.9626 61.017C85.3905 60.6403 84.6921 60.5038 84.0195 60.6374Z" fill="#263238"/>
<path d="M72.1287 47.4114C73.5322 48.2079 74.8942 49.0749 76.2093 50.009C78.8177 51.7953 81.0972 53.3583 83.5112 53.3806C82.7638 47.2998 78.3692 42.4322 72.8013 41.6879C70.1667 42.2498 67.7798 43.6312 65.9852 45.6326C68.1431 45.7477 70.2452 46.3564 72.1287 47.4114Z" fill="#263238"/>
<path d="M73.2274 64.1951C75.5592 63.8304 77.7116 62.5577 79.6548 61.4413C80.6957 60.7815 81.7967 60.2208 82.9433 59.7666C83.1219 59.19 83.2667 58.6035 83.3767 58.0101C81.0938 58.5753 78.7486 58.8528 76.3962 58.8363C74.779 58.8316 73.1637 58.7222 71.5607 58.5088C66.9046 57.891 64.2738 56.5811 62.8538 55.5316C63.2046 58.4325 64.5574 61.1215 66.6803 63.1382C68.7081 64.1326 70.988 64.5006 73.2274 64.1951Z" fill="#263238"/>
<path d="M80.9736 77.7643C94.1318 74.7149 102.316 61.6202 99.2544 48.5164C96.1924 35.4126 83.0433 27.2618 69.8851 30.3112C56.7269 33.3605 48.5423 46.4553 51.6043 59.5591C54.6663 72.6629 67.8154 80.8136 80.9736 77.7643Z" stroke="#FA26A0" stroke-width="2" stroke-linecap="round" stroke-linejoin="round"/>
<path d="M210.647 54.8841C210.647 61.4189 205.281 68.3557 200.139 68.3557C198.884 68.3557 195.603 68.3557 194.437 67.9091C188.069 65.4604 185.61 59.387 185.61 54.1026C185.61 51.3636 186.432 48.3715 188.6 46.5406C191.492 44.1217 194.676 45.6475 198.032 45.6475C200.954 45.6475 205.05 44.4566 207.277 46.0866C210.102 48.1557 210.647 51.6315 210.647 54.8841Z" fill="#263238"/>
<path d="M197.71 46.5332C198.212 44.9815 198.798 43.4584 199.467 41.9707C199.94 41.0333 200.681 40.2564 201.597 39.7378L202.934 40.2961C201.962 40.9385 201.095 41.7269 200.364 42.6331C199.439 44.1162 198.653 45.6808 198.017 47.3072" fill="#263238"/>
<path d="M198.577 44.531C198.589 44.1948 198.525 43.8602 198.389 43.5522C198.253 43.2441 198.049 42.9707 197.793 42.7522C196.404 41.8286 194.947 41.01 193.435 40.3035C193.435 40.3035 193.099 42.194 194.183 43.2806C195.266 44.3673 198.577 44.531 198.577 44.531Z" fill="#263238"/>
<path d="M207.202 50.4928C206.784 51.2371 205.505 51.2817 204.355 50.6193C203.204 49.9569 202.606 48.8256 203.032 48.0962C203.458 47.3668 204.728 47.3072 205.887 47.9697C207.045 48.6321 207.628 49.7634 207.202 50.4928Z" fill="white"/>
<path d="M221.001 62.6277C225.765 50.0382 219.379 35.9861 206.737 31.2414C194.096 26.4968 179.985 32.8563 175.221 45.4459C170.457 58.0354 176.842 72.0876 189.484 76.8322C202.126 81.5768 216.237 75.2173 221.001 62.6277Z" stroke="#FA26A0" stroke-width="2" stroke-linecap="round" stroke-linejoin="round"/>
<path d="M155.558 32.5257L155.446 32.4661C155.371 32.4661 147.845 28.4172 146.059 28.0599C143.887 27.8297 141.701 27.765 139.52 27.8664H138.697C137.561 27.8664 136.62 28.0972 136.5 28.3949C136.455 28.5289 136.575 28.8266 137.076 29.2806C138.57 30.6352 141.47 30.8436 142.86 30.9478C143.187 30.9539 143.512 30.9913 143.832 31.0594C144.598 31.5324 145.278 32.1314 145.842 32.8308L146.306 33.3518L126.941 35.3316C126.701 35.3445 126.477 35.4517 126.316 35.6296C126.156 35.8076 126.073 36.0417 126.086 36.2806C126.098 36.5195 126.206 36.7434 126.385 36.9032C126.563 37.0631 126.799 37.1456 127.038 37.1328L141.612 36.9095L125.222 40.564C125.121 40.5857 125.026 40.628 124.943 40.6883C124.859 40.7485 124.789 40.8252 124.737 40.9138C124.681 41.0013 124.644 41.0995 124.629 41.2021C124.613 41.3046 124.619 41.4092 124.647 41.5092C124.697 41.6805 124.805 41.8298 124.951 41.9325C125.098 42.0353 125.275 42.0855 125.454 42.0749L137.718 41.0403L137.853 41.74L126.889 44.9329C126.686 45.0006 126.516 45.1412 126.411 45.3273C126.307 45.5133 126.276 45.7314 126.325 45.9389C126.373 46.1465 126.498 46.3285 126.674 46.4494C126.85 46.5703 127.066 46.6214 127.278 46.5927L137.875 44.7469L138.062 45.4391L131.687 47.7538C131.629 47.7769 131.578 47.8143 131.539 47.8625C131.5 47.9107 131.474 47.9681 131.463 48.0292C131.455 48.0914 131.464 48.1547 131.489 48.2123C131.514 48.2699 131.554 48.3198 131.605 48.3567C131.637 48.3819 131.675 48.4003 131.715 48.4105C131.754 48.4208 131.796 48.4227 131.837 48.4162C133.608 48.2376 142.509 47.2998 143.996 46.9723C145.618 46.615 154.079 43.1392 154.161 43.102H154.288L171.291 42.7373L167.419 30.2854H167.382L155.558 32.5257Z" fill="#263238"/>
<path d="M129.221 43.5262L132.778 42.4917L132.995 42.1716L129.781 42.447L129.221 43.5262Z" fill="#263238"/>
<path d="M133.122 42.164L133.04 42.4089L134.221 42.0674L133.122 42.164Z" fill="#263238"/>
<path d="M128.145 37.8473C127.861 38.279 127.629 38.5916 127.479 38.8372C127.33 39.0828 127.248 39.2168 127.143 39.4178L134.617 37.7506L128.145 37.8473Z" fill="#263238"/>
<path d="M131.014 39.9462L130.14 41.7027L137.733 41.0627L137.868 41.7623L132.763 43.2509L131.904 45.8112L135.79 45.1339C136.881 44.0324 137.89 42.901 137.89 42.901C137.366 43.5653 136.892 44.2668 136.47 44.9999L137.89 44.7543L138.077 45.4465L136.164 46.1387C136.175 46.1739 136.193 46.2067 136.216 46.2354C136.777 46.7937 137.711 47.3444 138.264 46.7937C138.817 46.2429 143.286 40.497 144.243 39.9388C146.539 38.6419 148.718 37.1476 150.753 35.4731C151.373 34.9446 152.673 33.5751 154.288 31.8112C152.046 30.665 147.442 28.2981 146.067 28.0302C143.895 27.7999 141.709 27.7352 139.527 27.8367H138.705C137.569 27.8367 136.627 28.0674 136.508 28.3651C136.463 28.4991 136.582 28.7968 137.083 29.2508C138.578 30.6054 141.478 30.8138 142.868 30.918C143.195 30.9241 143.52 30.9615 143.839 31.0297C144.605 31.5027 145.285 32.1016 145.85 32.8011L146.313 33.3221L130.028 35.0042C129.52 35.7485 129.041 36.4927 128.63 37.0956L141.627 36.8947L126.792 40.2142C126.562 40.7953 126.374 41.3923 126.231 42.0005L129.266 41.7474C130.133 40.8319 131.014 39.9462 131.014 39.9462Z" fill="#263238"/>
<path d="M127.479 43.8388C127.784 43.3777 128.132 42.9465 128.518 42.5512L126.052 42.7596L125.992 43.0946C125.992 43.0946 127.106 44.5757 127.479 43.8388Z" fill="#263238"/>
<path d="M130.828 28.6554C132.057 28.4015 133.309 28.2767 134.564 28.2832L130.529 34.2599L144.811 32.7713C144.456 32.3658 144.043 32.0147 143.585 31.7293C143.323 31.6881 143.058 31.6632 142.793 31.6549C141.209 31.5358 138.256 31.3199 136.582 29.8016C136.321 29.5709 135.536 28.8563 135.835 28.1269C136.164 27.271 137.771 27.1445 138.697 27.1445H139.505C141.749 27.0396 143.998 27.1093 146.231 27.3529C147.726 27.6506 152.629 30.1588 154.788 31.2902C159.915 25.6336 167.673 16.6128 167.673 16.6128L155.192 11.9908C154.632 11.9908 148.869 23.2816 148.869 23.2816C148.869 23.2816 138.832 21.7931 137.532 21.9866C136.231 22.1801 130.461 25.321 129.161 25.8792C127.86 26.4374 126.373 26.9882 127.113 27.7325C127.617 28.1643 128.215 28.4726 128.86 28.6329C129.505 28.7931 130.179 28.8008 130.828 28.6554Z" fill="#263238"/>
<path d="M133.518 47.0988L132.995 47.2923C133.135 47.2749 133.272 47.2346 133.399 47.1732L133.518 47.0988Z" fill="#263238"/>
<path d="M134.041 46.1685L131.896 46.5406C131.963 46.6546 132.04 46.7618 132.128 46.8606L134.041 46.1685Z" fill="#263238"/>
<path d="M132.143 43.422L128.78 44.3971L128.593 44.7618C128.659 45.2939 128.798 45.8146 129.004 46.3099L130.215 46.094C130.768 45.4242 131.523 44.3152 132.143 43.422Z" fill="#263238"/>
<path d="M135.85 21.8228C135.85 21.8228 133.204 16.2035 131.239 18.1014C129.146 20.178 135.85 21.8228 135.85 21.8228Z" fill="#263238"/>
<path d="M143.981 21.8228C143.981 21.8228 146.627 16.2035 148.6 18.1014C150.708 20.178 143.981 21.8228 143.981 21.8228Z" fill="#263238"/>
<path d="M137.143 21.4209C137.047 21.419 136.956 21.3797 136.889 21.3115C136.822 21.2433 136.784 21.1517 136.784 21.0562V8.73084C136.786 8.63669 136.824 8.54692 136.891 8.48033C136.958 8.41374 137.048 8.37549 137.143 8.37359C137.19 8.37359 137.237 8.38283 137.28 8.40078C137.324 8.41874 137.363 8.44505 137.397 8.47823C137.43 8.5114 137.456 8.55078 137.474 8.59413C137.492 8.63747 137.502 8.68393 137.502 8.73084V21.0562C137.503 21.1038 137.494 21.151 137.477 21.1952C137.459 21.2394 137.433 21.2797 137.399 21.3137C137.366 21.3476 137.326 21.3746 137.282 21.393C137.238 21.4115 137.191 21.4209 137.143 21.4209Z" fill="#263238"/>
<path d="M139.774 25.9015C139.678 25.9015 139.587 25.8639 139.52 25.7969C139.453 25.7299 139.415 25.639 139.415 25.5443V22.9244C139.415 22.8296 139.453 22.7388 139.52 22.6718C139.587 22.6048 139.678 22.5671 139.774 22.5671C139.868 22.569 139.958 22.6073 140.025 22.6739C140.092 22.7405 140.13 22.8302 140.132 22.9244V25.5443C140.13 25.6384 140.092 25.7282 140.025 25.7948C139.958 25.8614 139.868 25.8996 139.774 25.9015Z" fill="white"/>
<path d="M139.774 23.2891C139.726 23.2891 139.679 23.2796 139.635 23.2612C139.591 23.2428 139.551 23.2158 139.517 23.1819C139.484 23.1479 139.458 23.1076 139.44 23.0634C139.423 23.0192 139.414 22.9719 139.415 22.9244V16.2258C139.414 16.1786 139.423 16.1317 139.44 16.0879C139.458 16.0441 139.484 16.0043 139.518 15.9709C139.551 15.9376 139.591 15.9113 139.635 15.8937C139.679 15.8761 139.726 15.8675 139.774 15.8686C139.821 15.8686 139.867 15.8778 139.911 15.8958C139.955 15.9137 139.994 15.94 140.027 15.9732C140.061 16.0064 140.087 16.0458 140.105 16.0891C140.123 16.1324 140.132 16.1789 140.132 16.2258V22.9244C140.132 23.0199 140.095 23.1115 140.028 23.1797C139.961 23.2479 139.87 23.2872 139.774 23.2891Z" fill="#263238"/>
<path d="M142.958 24.7777C142.862 24.7777 142.771 24.74 142.704 24.673C142.637 24.606 142.599 24.5152 142.599 24.4204V13.4199C142.599 13.3244 142.636 13.2328 142.703 13.1646C142.771 13.0964 142.862 13.0571 142.958 13.0552C143.005 13.0552 143.053 13.0646 143.097 13.0831C143.141 13.1015 143.18 13.1285 143.214 13.1624C143.247 13.1964 143.274 13.2367 143.291 13.2809C143.309 13.3251 143.317 13.3723 143.316 13.4199V24.4353C143.315 24.4812 143.305 24.5265 143.287 24.5686C143.268 24.6107 143.241 24.6487 143.208 24.6805C143.175 24.7123 143.136 24.7372 143.093 24.7539C143.05 24.7706 143.004 24.7787 142.958 24.7777Z" fill="#263238"/>
<path d="M142.958 12.6756C142.91 12.6756 142.864 12.6663 142.82 12.6484C142.777 12.6304 142.737 12.6041 142.704 12.5709C142.671 12.5378 142.644 12.4984 142.626 12.455C142.608 12.4117 142.599 12.3652 142.599 12.3183V9.48257C142.599 9.38712 142.636 9.29547 142.703 9.22729C142.771 9.1591 142.862 9.11982 142.958 9.11787C143.005 9.11786 143.053 9.12734 143.097 9.14576C143.141 9.16418 143.18 9.19116 143.214 9.22513C143.247 9.2591 143.274 9.29936 143.291 9.34357C143.309 9.38778 143.317 9.43504 143.316 9.48257V12.2811C143.323 12.3313 143.318 12.3823 143.303 12.4305C143.288 12.4788 143.262 12.5232 143.228 12.5607C143.194 12.5982 143.152 12.6279 143.106 12.6477C143.059 12.6676 143.008 12.6771 142.958 12.6756Z" fill="#263238"/>
<path d="M133.772 30.0249C133.041 29.6868 132.25 29.4964 131.444 29.4644C130.639 29.4325 129.835 29.5597 129.079 29.8388C126.456 30.7692 127.584 32.6373 129.266 32.2652C130.947 31.893 133.772 30.0249 133.772 30.0249Z" fill="#263238"/>
<path d="M134.706 34.1185C134.611 34.1185 134.52 34.0808 134.453 34.0138C134.386 33.9468 134.348 33.856 134.348 33.7612V30.397C134.35 30.3029 134.388 30.2131 134.455 30.1465C134.522 30.0799 134.612 30.0417 134.706 30.0398C134.802 30.0398 134.893 30.0774 134.96 30.1444C135.027 30.2114 135.065 30.3023 135.065 30.397V33.7612C135.066 33.8084 135.058 33.8553 135.04 33.8991C135.022 33.9429 134.996 33.9827 134.962 34.0161C134.929 34.0495 134.889 34.0757 134.845 34.0933C134.801 34.1109 134.754 34.1195 134.706 34.1185Z" fill="white"/>
<path d="M158.162 51.6764C167.715 42.1631 167.715 26.7388 158.162 17.2255C148.609 7.71211 133.121 7.71211 123.568 17.2255C114.015 26.7388 114.015 42.1631 123.568 51.6764C133.121 61.1898 148.609 61.1898 158.162 51.6764Z" stroke="#FA26A0" stroke-width="2" stroke-linecap="round" stroke-linejoin="round"/>
<path d="M125.297 279.875C161.443 279.875 190.745 275.376 190.745 269.827C190.745 264.277 161.443 259.779 125.297 259.779C89.1512 259.779 59.8492 264.277 59.8492 269.827C59.8492 275.376 89.1512 279.875 125.297 279.875Z" fill="#A3F7BF"/>
<path d="M114.445 160.409C113.324 165.205 112.475 170.061 111.904 174.952C110.828 183.668 112.607 197.281 112.607 197.281C112.607 197.281 99.9011 190.791 92.9879 191.647C86.0746 192.503 58.2349 202.342 54.5652 202C54.5652 202 51.8224 206.845 54.4905 206.778C58.1377 206.689 97.0088 207.522 103.294 208.229C109.714 208.974 118.81 210.909 121.979 208.021C124.146 206.064 132.076 181.502 132.195 173.449C132.236 168.921 132.555 164.4 133.152 159.91" fill="white"/>
<path d="M114.445 160.409C113.324 165.205 112.475 170.061 111.904 174.952C110.828 183.668 112.607 197.281 112.607 197.281C112.607 197.281 99.9011 190.791 92.9879 191.647C86.0746 192.503 58.2349 202.342 54.5652 202C54.5652 202 51.8224 206.845 54.4905 206.778C58.1377 206.689 97.0088 207.522 103.294 208.23C109.714 208.974 118.81 210.909 121.979 208.021C124.146 206.064 132.076 181.502 132.195 173.449C132.236 168.921 132.555 164.4 133.152 159.91" stroke="#263238" stroke-linecap="round" stroke-linejoin="round"/>
<path d="M111.897 174.93C110.828 183.646 112.644 197.259 112.644 197.259C112.644 197.259 99.9385 190.769 93.0253 191.624C90.5785 192.044 88.1599 192.614 85.7832 193.329C84.0493 196.686 82.5022 201.829 84.9162 207.366C93.3466 207.619 100.858 207.917 103.332 208.207C109.752 208.951 118.847 210.887 122.016 207.999C124.183 206.041 132.113 181.48 132.233 173.427C132.273 168.899 132.593 164.377 133.189 159.888L114.46 160.357C113.332 165.163 112.476 170.028 111.897 174.93Z" fill="#263238" stroke="#263238" stroke-linecap="round" stroke-linejoin="round"/>
<path d="M124.011 164.026L119.849 166.118C119.849 166.118 118.458 165.969 121.097 162.337" fill="white"/>
<path d="M124.011 164.026L119.849 166.118C119.849 166.118 118.458 165.969 121.097 162.337" stroke="#263238" stroke-linecap="round" stroke-linejoin="round"/>
<path d="M137.958 77.5327C137.958 77.5327 133.772 74.6449 126.702 74.3249C119.632 74.0048 114.834 83.6136 115.768 89.7018C116.702 95.7901 116.411 102.191 108.048 101.231C99.6844 100.271 89.4005 101.231 87.121 110.162C84.8415 119.094 94.8339 130.34 106.089 126.179C117.345 122.019 114.632 113.787 119.916 112.083C125.2 110.378 130.529 110.482 131.171 104.081C131.814 97.6806 127.636 91.9124 130.529 86.1441C132.26 82.7114 134.811 79.7544 137.958 77.5327Z" fill="#263238" stroke="#263238" stroke-linecap="round" stroke-linejoin="round"/>
<path d="M133.384 78.8427C133.384 78.8427 124.609 77.1457 121.68 84.4248C118.75 91.704 125.342 98.0155 123.174 105.265C121.007 112.514 112.711 118.126 105.873 115.685C99.0342 113.244 92.4125 110.921 91.9491 114.769C91.4857 118.617 96.5754 119.622 97.7936 118.893C99.0118 118.163 97.3078 116.712 97.3078 116.712" stroke="white" stroke-linecap="round" stroke-linejoin="round"/>
<path d="M105.29 107.274C104.271 107.008 103.231 106.834 102.181 106.753" stroke="white" stroke-linecap="round" stroke-linejoin="round"/>
<path d="M126.56 77.8751C126.56 77.8751 118.272 79.3637 118.272 88.0644C118.272 96.7651 122.412 102.146 118.757 107.728C116.224 111.599 112.778 109.872 108.429 108.287" stroke="white" stroke-linecap="round" stroke-linejoin="round"/>
<path d="M142.748 86.1665C142.748 86.1665 143.04 90.848 142.001 93.6093C140.962 96.3706 136.321 100.784 136.59 103.136C136.859 105.488 143.63 110.326 145.79 109.515C147.95 108.703 149.751 96.4823 149.751 96.4823C149.751 96.4823 145.954 87.789 142.748 86.1665Z" fill="white" stroke="#263238" stroke-linecap="round" stroke-linejoin="round"/>
<path d="M146.537 94.6737C147.928 97.2638 149.116 99.4148 152.21 99.9804C156.448 100.725 158.01 95.2914 158.578 89.7837C158.718 89.844 158.867 89.8841 159.019 89.9028C159.548 89.9814 160.089 89.9385 160.599 89.7773C161.109 89.616 161.576 89.3407 161.963 88.9724C162.307 88.6226 161.784 87.9527 161.096 87.2308C159.078 85.1021 158.906 83.4573 158.929 80.5322C158.996 79.2234 158.885 77.9115 158.6 76.6321C158.524 76.3542 158.431 76.0809 158.324 75.8134C155.237 68.2961 139.789 68.0208 138.952 77.302C138.712 80.5845 139.097 83.8824 140.088 87.0224" fill="white"/>
<path d="M158.929 80.5545C158.996 79.2457 158.885 77.9338 158.6 76.6545C158.524 76.3765 158.431 76.1032 158.324 75.8358C155.237 68.3185 139.789 68.0431 138.952 77.3243C138.711 80.5916 139.094 83.8747 140.08 87.0001C146.238 84.9745 152.559 83.4804 158.974 82.5343C158.929 81.9315 158.929 81.2839 158.929 80.5545Z" fill="#FA26A0"/>
<path opacity="0.5" d="M158.929 80.5545C158.996 79.2457 158.885 77.9338 158.6 76.6545C158.524 76.3765 158.431 76.1032 158.324 75.8358C155.237 68.3185 139.789 68.0431 138.952 77.3243C138.711 80.5916 139.094 83.8747 140.08 87.0001C146.238 84.9745 152.559 83.4804 158.974 82.5343C158.929 81.9315 158.929 81.2839 158.929 80.5545Z" fill="white"/>
<path d="M146.537 94.6737C147.928 97.2638 149.116 99.4148 152.21 99.9804C156.448 100.725 158.01 95.2914 158.578 89.7837C158.718 89.844 158.867 89.8841 159.019 89.9028C159.548 89.9814 160.089 89.9385 160.599 89.7773C161.109 89.616 161.576 89.3407 161.963 88.9724C162.307 88.6226 161.784 87.9527 161.096 87.2308C159.078 85.1021 158.906 83.4573 158.929 80.5322C158.996 79.2234 158.885 77.9115 158.6 76.6321C158.524 76.3542 158.431 76.0809 158.324 75.8134C155.237 68.2961 139.789 68.0208 138.952 77.302C138.712 80.5845 139.097 83.8824 140.088 87.0224" stroke="#263238" stroke-linecap="round" stroke-linejoin="round"/>
<path d="M156.791 83.9634C156.791 84.529 156.634 84.9979 156.365 85.0128C156.096 85.0277 155.857 84.5811 155.82 84.0155C155.782 83.4498 155.977 82.9809 156.246 82.966C156.515 82.9511 156.762 83.3828 156.791 83.9634Z" fill="#263238"/>
<path d="M156.687 92.024C156.687 92.024 154.392 92.1728 153.929 90.4982" stroke="#263238" stroke-linecap="round" stroke-linejoin="round"/>
<path d="M157.434 74.3323C153.047 68.3333 138.839 72.7172 138.062 81.3063C137.674 85.6455 137.509 91.4732 141.694 92.1505C142.987 88.109 147.165 87.9974 147.031 85.9208C146.844 82.8395 153.01 82.9437 152.188 78.2845C151.537 74.243 154.759 76.6842 157.434 74.3323Z" fill="#263238" stroke="#263238" stroke-linecap="round" stroke-linejoin="round"/>
<path d="M138.212 84.7523L159.736 77.5253C159.736 77.5253 156.926 70.0824 153.279 68.1771C149.632 66.2717 140.962 68.1771 138.002 71.958C135.043 75.739 136.814 78.478 138.212 84.7523Z" fill="#FA26A0"/>
<path opacity="0.2" d="M141.919 74.101C142.158 70.5434 145.887 68.2137 146.911 67.6406C143.421 68.184 139.736 69.747 138.002 71.9575C135.013 75.7385 136.814 78.4775 138.212 84.7518L144.848 82.5189C143.615 80.1074 141.739 76.6837 141.919 74.101Z" fill="#05DFD7"/>
<path d="M138.212 84.7523L159.736 77.5253C159.736 77.5253 156.926 70.0824 153.279 68.1771C149.632 66.2717 140.962 68.1771 138.002 71.958C135.043 75.739 136.814 78.478 138.212 84.7523Z" stroke="#263238" stroke-linecap="round" stroke-linejoin="round"/>
<path d="M152.546 80.108C152.546 80.108 161.814 79.7879 166.38 80.2568C170.947 80.7257 168.114 78.3961 159.736 77.5253C159.736 77.5253 154.146 79.5051 152.546 80.108Z" fill="white" stroke="#263238" stroke-linecap="round" stroke-linejoin="round"/>
<path d="M138.974 97.7624C138.974 97.7624 147.659 104.089 149.527 109.798C151.859 116.935 150.88 122.696 148.645 129.149C146.41 135.602 143.488 135.9 141.739 142.762C139.811 150.339 139.43 165.143 135.686 171.893C128.735 184.435 109.311 173.241 108.982 161.213C108.623 148.21 120.708 140.447 122.106 133.912C123.6 126.827 121.949 117.017 125.237 110.378C128.526 103.739 134.811 97.5243 138.974 97.7624Z" fill="#263238" stroke="#263238" stroke-linecap="round" stroke-linejoin="round"/>
<path d="M136.418 103.955C134.198 104.564 132.215 105.827 130.73 107.58C127.106 111.882 122.719 128.814 121.829 131.397C120.521 135.222 118.242 148.992 119.161 149.26C120.08 149.528 125.805 149.349 135.708 150.294C145.611 151.239 164.146 146.052 164.146 146.052C164.146 146.052 167.202 148.099 169.863 147.295C170.207 147.191 170.513 147.086 170.797 146.99C171.619 146.703 172.314 146.14 172.763 145.397C172.945 145.116 173.083 144.81 173.174 144.489C173.325 144.006 173.345 143.493 173.234 143C173.218 141.926 172.962 140.868 172.486 139.904C171.851 138.825 171.447 139.42 170.566 138.951C169.459 138.467 168.226 138.348 167.045 138.609C166.298 138.914 163.675 142.487 163.675 142.487C163.675 142.487 152.793 143.744 143.234 140.693C134.602 137.946 132.547 137.961 132.547 137.961C132.547 137.961 140.872 118.915 143.757 113.586" fill="#FA26A0"/>
<path d="M136.418 103.955C134.198 104.564 132.215 105.827 130.73 107.58C127.106 111.882 122.719 128.814 121.829 131.397C120.521 135.222 118.242 148.992 119.161 149.26C120.08 149.528 125.805 149.349 135.708 150.294C145.611 151.239 164.146 146.052 164.146 146.052C164.146 146.052 167.202 148.099 169.863 147.295C170.207 147.191 170.513 147.086 170.797 146.99C171.619 146.703 172.314 146.14 172.763 145.397C172.945 145.116 173.083 144.81 173.174 144.489C173.325 144.006 173.345 143.493 173.234 143C173.218 141.926 172.962 140.868 172.486 139.904C171.851 138.825 171.447 139.42 170.566 138.951C169.459 138.467 168.226 138.348 167.045 138.609C166.298 138.914 163.675 142.487 163.675 142.487C163.675 142.487 152.793 143.744 143.234 140.693C134.602 137.946 132.547 137.961 132.547 137.961C132.547 137.961 140.872 118.915 143.757 113.586" stroke="#263238" stroke-linecap="round" stroke-linejoin="round"/>
<path d="M169.863 147.347L170.543 147.124C171.063 146.962 171.545 146.698 171.961 146.348C172.377 145.998 172.718 145.568 172.965 145.084C173.058 144.913 173.128 144.73 173.174 144.541C173.324 144.059 173.345 143.545 173.234 143.052C173.218 141.978 172.962 140.92 172.486 139.956C171.851 138.877 171.447 139.472 170.565 139.003C169.458 138.52 168.225 138.4 167.045 138.661C166.298 138.966 163.675 142.539 163.675 142.539C161.165 142.765 158.644 142.829 156.126 142.732L156.223 148.039C160.827 147.034 164.175 146.096 164.175 146.096C164.175 146.096 167.202 148.136 169.863 147.347Z" fill="white" stroke="#263238" stroke-linecap="round" stroke-linejoin="round"/>
<path d="M170.536 139.011C170.536 139.011 171.455 141.541 170.887 142.874C170.319 144.206 168.406 140.976 168.406 140.976" stroke="#263238" stroke-linecap="round" stroke-linejoin="round"/>
<path d="M169.743 145.159L169.362 142.688C169.362 142.688 166.313 145.918 164.975 144.586" stroke="#263238" stroke-linecap="round" stroke-linejoin="round"/>
<path d="M153.04 121.341C152.673 119.659 152.195 117.992 151.679 116.332C150.992 114.152 150.229 111.986 149.527 109.835C149.36 109.344 149.158 108.867 148.922 108.406V107.304C148.922 106.113 150.319 103.933 150.319 103.933C149.28 102.782 148.148 101.719 146.934 100.754C144.348 98.5737 139.766 95.604 139.766 95.604L137.614 97.9411C133.533 98.8566 128.182 104.498 125.237 110.453C121.949 117.092 123.63 126.901 122.106 133.987C121.313 137.708 117.083 141.794 113.638 147.019C121.654 151.578 130.543 154.408 139.729 155.326C140.372 150.637 140.917 146.082 141.739 142.836C142.625 139.458 144.338 136.351 146.724 133.793C150.17 130.05 154.288 127.05 153.04 121.341Z" fill="#FA26A0"/>
<path opacity="0.2" d="M125.611 150.369C125.611 149.267 133.354 140.738 135.013 138.534C136.672 136.331 128.1 137.984 126.717 137.984C125.334 137.984 130.588 131.65 134.191 125.048C137.793 118.446 136.949 116.786 136.949 116.786L127.539 112.641C127.539 112.641 126.044 113.348 123.862 114.405C122.457 120.605 123.339 128.181 122.098 133.95C121.306 137.671 117.076 141.757 113.63 146.982C117.357 149.125 121.3 150.872 125.394 152.192C125.508 151.59 125.58 150.981 125.611 150.369Z" fill="#05DFD7"/>
<path d="M153.04 121.341C152.673 119.659 152.195 117.992 151.679 116.332C150.992 114.152 150.229 111.986 149.527 109.835C149.36 109.344 149.158 108.867 148.922 108.406V107.304C148.922 106.113 150.319 103.933 150.319 103.933C149.28 102.782 148.148 101.719 146.934 100.754C144.348 98.5737 139.766 95.604 139.766 95.604L137.614 97.9411C133.533 98.8566 128.182 104.498 125.237 110.453C121.949 117.092 123.63 126.901 122.106 133.987C121.313 137.708 117.083 141.794 113.638 147.019C121.654 151.578 130.543 154.408 139.729 155.326C140.372 150.637 140.917 146.082 141.739 142.836C142.625 139.458 144.338 136.351 146.724 133.793C150.17 130.05 154.288 127.05 153.04 121.341Z" stroke="#263238" stroke-linecap="round" stroke-linejoin="round"/>
<path d="M139.706 103.151C137.545 102.385 135.202 102.281 132.98 102.853C127.532 104.29 114.154 115.625 111.926 117.24C108.645 119.615 98.8249 129.566 99.3929 130.347C99.9609 131.129 104.774 134.225 112.33 140.678C119.886 147.131 135.499 152.974 135.499 152.974C135.499 152.974 139.325 156.941 141.963 157.804C142.756 158.065 143.398 158.236 143.929 158.355C144.079 158.407 144.235 158.459 144.385 158.496C144.905 158.685 145.466 158.728 146.009 158.622C146.552 158.516 147.055 158.264 147.464 157.893C147.862 157.586 148.174 157.181 148.368 156.717C148.971 155.822 149.366 154.806 149.527 153.74C149.632 152.497 147.778 152.252 147.33 151.381C146.707 150.347 145.766 149.54 144.647 149.081C143.899 148.917 139.654 150.317 139.654 150.317C139.654 150.317 130.088 145.107 124.011 137.091C118.541 129.901 116.852 128.732 116.852 128.732C116.852 128.732 134.669 117.933 140.088 115.209" fill="#FA26A0"/>
<path opacity="0.2" d="M146.62 157.514C140.536 155.861 133.354 150.354 128.1 147.049C122.846 143.745 108.474 131.635 106.538 131.084C104.602 130.533 107.091 129.707 110.133 127.504C113.175 125.301 106.261 127.504 104.602 127.504C102.943 127.504 128.653 110.988 132.255 106.865C134.968 103.747 131.373 104.081 129.452 104.431C123.152 107.982 113.757 115.908 111.911 117.24C108.63 119.615 98.81 129.566 99.378 130.347C99.946 131.129 104.759 134.225 112.315 140.678C119.871 147.131 135.484 152.974 135.484 152.974C135.484 152.974 139.31 156.941 141.949 157.804C142.741 158.065 143.383 158.236 143.914 158.355C144.064 158.407 144.221 158.459 144.37 158.496C144.89 158.685 145.451 158.728 145.994 158.622C146.537 158.516 147.04 158.264 147.449 157.893L147.569 157.789L146.62 157.514Z" fill="#05DFD7"/>
<path d="M139.706 103.151C137.545 102.385 135.202 102.281 132.98 102.853C127.532 104.29 114.154 115.625 111.926 117.24C108.645 119.615 98.8249 129.566 99.3929 130.347C99.9609 131.129 104.774 134.225 112.33 140.678C119.886 147.131 135.499 152.974 135.499 152.974C135.499 152.974 139.325 156.941 141.963 157.804C142.756 158.065 143.398 158.236 143.929 158.355C144.079 158.407 144.235 158.459 144.385 158.496C144.905 158.685 145.466 158.728 146.009 158.622C146.552 158.516 147.055 158.264 147.464 157.893C147.862 157.586 148.174 157.181 148.368 156.717C148.971 155.822 149.366 154.806 149.527 153.74C149.632 152.497 147.778 152.252 147.33 151.381C146.707 150.347 145.766 149.54 144.647 149.081C143.899 148.917 139.654 150.317 139.654 150.317C139.654 150.317 130.088 145.107 124.011 137.091C118.541 129.901 116.852 128.732 116.852 128.732C116.852 128.732 134.669 117.933 140.088 115.209" stroke="#263238" stroke-linecap="round" stroke-linejoin="round"/>
<path d="M147.337 151.381C146.715 150.347 145.774 149.54 144.654 149.081C143.907 148.917 139.662 150.317 139.662 150.317C138.119 149.443 136.622 148.491 135.177 147.466L131.732 151.463C133.974 152.423 135.469 152.951 135.469 152.951C135.469 152.951 139.295 156.918 141.934 157.782C142.726 158.042 143.369 158.213 143.899 158.333C144.049 158.385 144.206 158.437 144.355 158.474C144.875 158.662 145.436 158.706 145.979 158.6C146.522 158.493 147.025 158.241 147.434 157.871C147.833 157.563 148.144 157.158 148.339 156.695C148.941 155.8 149.336 154.783 149.497 153.718C149.639 152.497 147.786 152.267 147.337 151.381Z" fill="white" stroke="#263238" stroke-linecap="round" stroke-linejoin="round"/>
<path d="M146.074 87.4913C146.074 87.4913 143.742 83.2637 141.904 84.7523C140.065 86.2409 142.255 89.0617 144.699 89.873C147.143 90.6843 146.134 89.1287 146.134 89.1287" fill="white"/>
<path d="M146.074 87.4913C146.074 87.4913 143.742 83.2637 141.904 84.7523C140.065 86.2409 142.255 89.0617 144.699 89.873C147.143 90.6843 146.134 89.1287 146.134 89.1287" stroke="#263238" stroke-linecap="round" stroke-linejoin="round"/>
<path d="M119.438 171.99C122.845 175.56 126.451 178.937 130.237 182.105C136.964 187.784 149.213 192.972 149.213 192.972C149.213 192.972 142.539 208.475 142.786 215.375C143.032 222.274 150.386 250.803 149.714 254.405C149.714 254.405 153.765 257.464 154.49 254.911C155.67 250.788 157.883 217.273 158.765 210.887C159.632 204.627 161.933 193.359 161.926 190.449C161.926 184.866 146.859 168.916 140.17 164.398C136.395 161.874 132.778 159.123 129.34 156.159" fill="white"/>
<path d="M119.438 171.99C122.845 175.56 126.451 178.937 130.237 182.105C136.964 187.784 149.213 192.972 149.213 192.972C149.213 192.972 142.539 208.475 142.786 215.375C143.032 222.274 150.386 250.803 149.714 254.405C149.714 254.405 153.765 257.464 154.49 254.911C155.67 250.788 157.883 217.273 158.765 210.887C159.632 204.627 161.933 193.359 161.926 190.449C161.926 184.866 146.859 168.916 140.17 164.398C136.395 161.874 132.778 159.123 129.34 156.159" stroke="#263238" stroke-linecap="round" stroke-linejoin="round"/>
<path d="M140.17 164.391C136.395 161.867 132.778 159.115 129.34 156.152L119.438 171.99C122.845 175.56 126.451 178.937 130.237 182.105C136.964 187.784 149.213 192.972 149.213 192.972C149.213 192.972 142.539 208.475 142.786 215.375C143.065 218.478 143.542 221.561 144.213 224.604C148.569 225.505 153.048 225.661 157.457 225.065C157.987 218.635 158.458 213.112 158.765 210.887C159.632 204.627 161.933 193.359 161.926 190.449C161.918 184.866 146.859 168.916 140.17 164.391Z" fill="#263238" stroke="#263238" stroke-linecap="round" stroke-linejoin="round"/>
<path d="M117.868 173.888C121.246 176.612 126.538 180.587 130.237 182.075" stroke="white" stroke-linecap="round" stroke-linejoin="round"/>
<path d="M114.587 171.164C114.587 171.164 115.163 171.663 116.082 172.452" stroke="white" stroke-linecap="round" stroke-linejoin="round"/>
<path d="M125.327 154.991L136.859 161.511" stroke="white" stroke-linecap="round" stroke-linejoin="round"/>
<path d="M117.995 151.113C117.995 151.113 113.018 153.725 113.279 156.07C113.541 158.414 119.303 154.507 118.78 157.112C118.257 159.717 115.417 160.201 118.257 161.287C121.097 162.374 133.712 172.504 141.575 177.729C149.437 182.954 157.554 189.987 156.769 192.071C155.984 194.155 148.645 212.911 150.215 225.207" stroke="white" stroke-linecap="round" stroke-linejoin="round"/>
<path d="M84.1912 202.469C84.1912 202.469 103.055 205.334 110.91 206.116C118.765 206.897 119.557 205.334 118.249 203.771C116.941 202.208 119.557 204.292 120.08 201.94C120.603 199.588 121.657 184.985 121.919 181.331" stroke="white" stroke-linecap="round" stroke-linejoin="round"/>
<path d="M55.2828 202.402C55.2828 202.402 50.4323 195.644 48.8404 196.447C47.2484 197.251 43.4667 199.886 41.4189 200.98C39.3711 202.074 35.7089 206.488 35.7388 207.917C35.7687 209.346 39.6476 207.031 42.2186 206.518C44.7896 206.004 54.4905 206.823 54.4905 206.823C54.4905 206.823 53.9674 203.109 55.2828 202.402Z" fill="#FA26A0" stroke="#263238" stroke-linecap="round" stroke-linejoin="round"/>
<path d="M50.3875 196.931C49.7597 196.477 49.2141 196.247 48.8404 196.433C47.2559 197.222 43.4667 199.871 41.4189 200.965C39.3711 202.059 35.7089 206.473 35.7388 207.902C35.7388 208.43 36.2919 208.445 37.0916 208.229C38.6536 205.141 42.0243 203.533 45.2081 200.787C46.8366 199.376 48.5678 198.087 50.3875 196.931Z" fill="white" stroke="#263238" stroke-linecap="round" stroke-linejoin="round"/>
<path d="M149.714 254.405C149.714 254.405 146.224 261.96 147.718 262.935C149.213 263.91 153.383 265.912 155.357 267.103C157.33 268.293 162.987 269.335 164.22 268.591C165.454 267.847 161.507 265.651 159.788 263.686C158.069 261.721 154.504 254.926 154.504 254.926C154.504 254.926 150.984 255.194 149.714 254.405Z" fill="#FA26A0" stroke="#263238" stroke-linecap="round" stroke-linejoin="round"/>
<path d="M164.205 268.576C164.736 268.256 164.295 267.661 163.458 266.931C162.339 267.062 161.21 267.084 160.087 266.998C157.92 266.783 150.499 262.845 147.382 261.148C147.255 262.012 147.307 262.689 147.681 262.935C149.176 263.917 153.346 265.912 155.319 267.103C157.292 268.293 162.972 269.313 164.205 268.576Z" fill="white" stroke="#263238" stroke-linecap="round" stroke-linejoin="round"/>
</svg>
